# 3ds Max Wavefront OBJ Exporter v0.97b - (c)2007 guruware
# File Created: 23.05.2020 14:50:47

mtllib DogHead.mtl

#
# object DogHead
#

v  -2.0983 0.4018 -3.3789
v  0.4085 -0.6823 -3.4043
v  -2.1085 -0.8001 -2.3860
v  0.3342 0.5158 -3.6870
v  -0.9045 1.4401 -5.3588
v  1.9157 1.7575 -4.7548
v  -1.4408 3.9565 -5.9326
v  2.0897 4.3539 -5.1766
v  2.1512 6.5222 -3.7013
v  3.5049 5.0746 -1.7078
v  4.4894 5.1451 -2.5668
v  3.9784 4.8519 -0.1691
v  4.3986 5.0785 -0.2749
v  3.2629 7.6343 -0.9499
v  3.6509 6.7211 -3.8376
v  2.3937 7.9298 -1.4204
v  1.7683 7.1243 -2.2489
v  1.7722 6.1273 1.0336
v  -2.7610 0.6291 -0.4802
v  -3.0353 -0.3051 0.6743
v  -2.9948 1.9145 1.2348
v  -2.0869 -0.9100 0.3212
v  0.1053 -1.2033 -1.7144
v  2.2602 -0.3084 -1.4505
v  2.3973 0.9078 -2.4162
v  1.7654 1.1386 0.4891
v  2.8822 1.9019 -0.0838
v  -4.2562 4.2010 -3.3698
v  -3.0701 1.4487 -4.4767
v  -2.5535 5.9927 -4.7088
v  -4.7993 4.0996 -4.5560
v  -3.8745 5.8741 -5.4491
v  -4.8921 6.7164 -2.6963
v  -3.9914 7.2111 -2.7877
v  -5.2526 3.8129 -2.1458
v  -0.6480 7.3150 -2.6741
v  -2.9287 6.5956 -3.2547
v  -1.1397 7.3671 -0.4056
v  -4.0482 5.4722 -0.2129
v  -1.4191 5.9952 1.6204
v  1.1690 -0.5435 1.0184
v  1.7410 0.2325 1.6971
v  1.0062 2.3648 2.0916
v  0.4734 1.7714 3.2116
v  -3.6848 1.1627 -1.4901
v  -5.6317 3.9495 -2.4229
v  3.4831 2.1864 -3.0734
v  3.4645 2.9515 -0.8226
v  -4.1269 2.0970 -2.4482
v  -1.1030 2.2204 2.1282
v  -3.5968 3.6470 0.8750
v  1.3187 4.2003 1.9277
v  2.6676 3.6435 1.0657
v  -4.3294 2.8559 -0.4326
v  -0.7762 -0.8869 2.2356
v  -2.4886 -0.6584 1.2481
v  -2.8479 1.3975 2.5003
v  -1.1470 0.9059 3.0247
v  -1.8709 1.4840 2.9917
v  -1.2746 1.5371 3.2888
v  -1.7426 1.7878 2.5095
v  -1.1459 2.0496 2.4183
v  -0.5964 1.9168 2.7550
v  -0.6128 1.6256 3.2612
v  1.0977 -0.2547 2.0161
# 65 vertices

vn -0.4632 -0.7327 -0.4986
vn 0.2280 -0.6552 -0.7202
vn -0.6177 -0.7091 -0.3400
vn 0.2313 -0.6049 -0.7620
vn -0.0287 -0.5553 -0.8312
vn 0.4799 -0.4980 -0.7223
vn -0.1863 0.1241 -0.9746
vn 0.5337 0.2052 -0.8204
vn 0.2108 0.5942 -0.7762
vn 0.2914 -0.9355 -0.1998
vn 0.7238 -0.5393 -0.4304
vn -0.1684 -0.6660 0.7267
vn 0.7822 -0.2041 0.5887
vn 0.3154 0.7230 0.6146
vn 0.4565 0.2861 -0.8425
vn -0.4857 0.7986 0.3554
vn -0.1049 0.9943 0.0207
vn 0.3685 0.8588 0.3558
vn -0.8885 -0.4204 -0.1836
vn -0.8286 -0.3224 -0.4578
vn -0.9813 0.0638 -0.1816
vn -0.5023 -0.8559 -0.1228
vn 0.1273 -0.9890 -0.0747
vn 0.8378 -0.5453 -0.0283
vn 0.7695 -0.5939 -0.2347
vn 0.9540 -0.2130 0.2110
vn 0.7475 -0.6436 0.1645
vn 0.0207 -0.9660 -0.2577
vn -0.6225 -0.4949 -0.6063
vn 0.0002 0.5705 -0.8213
vn -0.3549 -0.6607 -0.6614
vn -0.1260 0.2205 -0.9672
vn -0.6830 0.6106 0.4008
vn 0.1184 0.8666 0.4847
vn -0.0027 -0.6473 0.7622
vn -0.0506 0.9618 -0.2691
vn -0.1265 0.9918 0.0161
vn -0.1648 0.9484 0.2709
vn -0.6544 0.7437 0.1367
vn -0.2060 0.8232 0.5291
vn 0.6785 -0.7230 0.1301
vn 0.9973 -0.0592 0.0437
vn 0.8796 0.2257 0.4187
vn 0.8409 0.1966 0.5042
vn -0.5945 -0.7946 -0.1229
vn -0.8905 -0.3924 0.2305
vn 0.9042 -0.3231 -0.2793
vn 0.9690 -0.2315 0.0867
vn -0.8477 -0.4359 -0.3023
vn -0.2185 0.0932 0.9714
vn -0.6898 0.0608 0.7215
vn -0.6767 -0.2168 0.7037
vn -0.2280 0.2222 0.9480
vn 0.3087 0.1731 0.9353
vn 0.5468 0.3494 0.7609
vn 0.7785 0.0112 0.6275
vn 0.8942 0.2260 0.3865
vn 0.9208 -0.0036 0.3899
vn -0.8435 -0.4885 0.2233
vn -0.7241 -0.5956 0.3477
vn -0.9487 -0.1833 0.2576
vn -0.8685 0.1901 0.4578
vn 0.3632 -0.0997 0.9263
vn 0.7638 -0.3075 0.5675
vn -0.9760 -0.2171 -0.0163
vn -0.9997 0.0128 -0.0190
vn 0.6300 -0.4432 0.6377
vn -0.0929 -0.6345 0.7674
vn -0.3734 -0.8050 0.4611
vn -0.2230 -0.9609 0.1643
vn -0.4951 0.3510 0.7948
vn -0.1451 -0.4173 0.8971
vn -0.4501 0.2777 0.8487
vn -0.2304 0.2667 0.9358
vn -0.3100 0.8475 0.4308
vn -0.1983 0.8572 0.4754
vn -0.1956 0.8673 0.4577
vn -0.0788 0.8735 0.4803
vn -0.0616 0.8899 0.4521
vn 0.0441 0.4117 0.9102
vn -0.0022 0.3281 0.9446
vn 0.3167 -0.7273 0.6089
vn 0.3362 -0.8979 0.2840
vn -0.3174 0.8611 0.3973
vn -0.7032 -0.6605 0.2633
vn -0.8040 -0.5364 0.2566
vn -0.5391 -0.8422 -0.0049
vn -0.9726 -0.1117 0.2040
vn 0.6593 -0.5071 0.5551
vn 0.6560 -0.4908 0.5733
vn 0.5845 -0.2711 0.7648
vn 0.6606 -0.7072 0.2520
vn 0.1274 -0.9890 -0.0753
vn -0.9937 -0.0100 0.1113
# 94 vertex normals

vt 0.5340 0.9864 0.0000
vt 0.4020 0.9120 0.0000
vt 0.5415 0.9201 0.0000
vt 0.3991 0.9786 0.0000
vt 0.4534 0.3150 0.0000
vt 0.4862 0.4257 0.0000
vt 0.3536 0.3956 0.0000
vt 0.5889 0.4000 0.0000
vt 0.2189 0.8781 0.0000
vt 0.0465 0.7373 0.0000
vt 0.2039 0.7361 0.0000
vt 0.0218 0.8795 0.0000
vt 0.0058 0.9988 0.0000
vt 0.2951 0.7234 0.0000
vt 0.3754 0.6128 0.0000
vt 0.4154 0.8052 0.0000
vt 0.9067 0.4889 0.0000
vt 0.9773 0.4724 0.0000
vt 0.9917 0.6053 0.0000
vt 0.9942 0.3847 0.0000
vt 0.9708 0.3790 0.0000
vt 0.9266 0.5229 0.0000
vt 0.9848 0.6667 0.0000
vt 0.9014 0.5309 0.0000
vt 0.9350 0.6574 0.0000
vt 0.8107 0.7655 0.0000
vt 0.8138 0.6188 0.0000
vt 0.9787 0.7609 0.0000
vt 0.6839 0.8694 0.0000
vt 0.6341 0.9369 0.0000
vt 0.5389 0.9096 0.0000
vt 0.0979 0.0258 0.0000
vt 0.0584 0.1468 0.0000
vt 0.0181 0.0011 0.0000
vt 0.1019 0.1091 0.0000
vt 0.6925 0.8670 0.0000
vt 0.5442 0.8819 0.0000
vt 0.6986 0.8107 0.0000
vt 0.3170 0.4607 0.0000
vt 0.2617 0.6428 0.0000
vt 0.6901 0.0348 0.0000
vt 0.7680 0.0080 0.0000
vt 0.7551 0.1344 0.0000
vt 0.0058 0.2743 0.0000
vt 0.0102 0.1711 0.0000
vt 0.0615 0.2116 0.0000
vt 0.8491 0.5738 0.0000
vt 0.6988 0.5747 0.0000
vt 0.7462 0.4909 0.0000
vt 0.6721 0.3321 0.0000
vt 0.7843 0.2696 0.0000
vt 0.7810 0.4356 0.0000
vt 0.7285 0.1924 0.0000
vt 0.8778 0.1938 0.0000
vt 0.6606 0.7152 0.0000
vt 0.6348 0.6326 0.0000
vt 0.7856 0.6295 0.0000
vt 0.9995 0.0058 0.0000
vt 0.9619 0.1631 0.0000
vt 0.9188 0.0359 0.0000
vt 0.6310 0.2990 0.0000
vt 0.6627 0.3610 0.0000
vt 0.5016 0.3259 0.0000
vt 0.3728 0.9079 0.0000
vt 0.3233 0.7491 0.0000
vt 0.2685 0.9969 0.0000
vt 0.5495 0.7303 0.0000
vt 0.6300 0.6348 0.0000
vt 0.6178 0.7544 0.0000
vt 0.7791 0.8124 0.0000
vt 0.7041 0.7168 0.0000
vt 0.7566 0.6508 0.0000
vt 0.9688 0.9163 0.0000
vt 0.8161 0.8695 0.0000
vt 0.8656 0.7711 0.0000
vt 0.4685 0.1616 0.0000
vt 0.4207 0.1463 0.0000
vt 0.4450 0.0005 0.0000
vt 0.8679 0.6125 0.0000
vt 0.6668 0.6138 0.0000
vt 0.7097 0.5762 0.0000
vt 0.0058 0.3515 0.0000
vt 0.0388 0.2883 0.0000
vt 0.1977 0.3491 0.0000
vt 0.6283 0.8413 0.0000
vt 0.3648 0.0254 0.0000
vt 0.2379 0.1139 0.0000
vt 0.3684 0.1087 0.0000
vt 0.2385 0.2426 0.0000
vt 0.3941 0.2866 0.0000
vt 0.2303 0.3558 0.0000
vt 0.8640 0.1622 0.0000
vt 0.8934 0.2113 0.0000
vt 0.9991 0.2686 0.0000
vt 0.9486 0.3176 0.0000
vt 0.2166 0.5495 0.0000
vt 0.2759 0.6894 0.0000
vt 0.2137 0.7172 0.0000
vt 0.4717 0.1662 0.0000
vt 0.6122 0.2924 0.0000
vt 0.4323 0.2932 0.0000
vt 0.3238 0.3199 0.0000
vt 0.2350 0.4639 0.0000
vt 0.8680 0.5901 0.0000
vt 0.6026 0.8458 0.0000
vt 0.9840 0.7628 0.0000
vt 0.5356 0.6886 0.0000
vt 0.5514 0.5227 0.0000
vt 0.6066 0.6521 0.0000
vt 0.4932 0.5637 0.0000
vt 0.9189 0.0005 0.0000
vt 0.8321 0.1631 0.0000
vt 0.8328 0.0039 0.0000
vt 0.9631 0.7128 0.0000
vt 0.2830 0.9882 0.0000
vt 0.5697 0.5311 0.0000
vt 0.5597 0.0740 0.0000
vt 0.4662 0.0017 0.0000
vt 0.6273 0.0435 0.0000
vt 0.0638 0.2872 0.0000
vt 0.7674 0.8021 0.0000
vt 0.6379 0.8094 0.0000
vt 0.5594 0.7818 0.0000
vt 0.9343 0.3325 0.0000
vt 0.9065 0.5091 0.0000
vt 0.2640 0.5341 0.0000
vt 0.0058 0.1623 0.0000
vt 0.2137 0.5157 0.0000
vt 0.1381 0.3774 0.0000
vt 0.2342 0.4108 0.0000
vt 0.0043 0.4982 0.0000
vt 0.1038 0.6501 0.0000
vt 0.0005 0.6752 0.0000
vt 0.1383 0.7249 0.0000
vt 0.4548 0.4589 0.0000
vt 0.6504 0.1518 0.0000
vt 0.7035 0.2179 0.0000
vt 0.0368 0.3523 0.0000
vt 0.2092 0.6327 0.0000
vt 0.7789 0.8161 0.0000
vt 0.8156 0.9265 0.0000
vt 0.6881 0.9495 0.0000
vt 0.6990 0.8306 0.0000
vt 0.9079 0.4570 0.0000
vt 0.8025 0.4873 0.0000
vt 0.7237 0.4726 0.0000
vt 0.5969 0.3576 0.0000
vt 0.7110 0.3776 0.0000
vt 0.6242 0.4520 0.0000
vt 0.5921 0.4118 0.0000
vt 0.5892 0.4449 0.0000
vt 0.4569 0.8864 0.0000
vt 0.4913 0.8495 0.0000
vt 0.4927 0.8771 0.0000
vt 0.4600 0.8376 0.0000
vt 0.4610 0.8214 0.0000
vt 0.4263 0.8496 0.0000
vt 0.3470 0.7951 0.0000
vt 0.3630 0.8620 0.0000
vt 0.4213 0.8772 0.0000
vt 0.5843 0.4816 0.0000
vt 0.5762 0.5419 0.0000
vt 0.6886 0.5765 0.0000
vt 0.9714 0.3738 0.0000
vt 0.5514 0.8617 0.0000
vt 0.5740 0.7947 0.0000
vt 0.7586 0.4870 0.0000
vt 0.8046 0.0005 0.0000
vt 0.8309 0.1314 0.0000
vt 0.6616 0.6122 0.0000
vt 0.9834 0.3358 0.0000
# 171 texture coords

o DogHead
g DogHead
usemtl Material__57
s 1
f 1/1/1 2/2/2 3/3/3 
f 1/1/1 4/4/4 2/2/2 
f 5/5/5 4/6/4 1/7/1 
f 5/5/5 6/8/6 4/6/4 
f 7/9/7 6/10/6 5/11/5 
f 7/9/7 8/12/8 6/10/6 
f 9/13/9 8/12/8 7/9/7 
f 9/14/9 10/15/10 8/16/8 
f 11/17/11 10/18/10 9/19/9 
f 11/17/11 12/20/12 10/18/10 
f 13/21/13 12/20/12 11/17/11 
f 13/22/13 14/23/14 12/24/12 
f 11/25/11 14/26/14 13/27/13 
f 11/25/11 15/28/15 14/26/14 
f 9/29/9 15/30/15 11/31/11 
f 9/32/9 16/33/16 15/34/15 
f 17/35/17 16/33/16 9/32/9 
f 17/36/17 10/37/10 16/38/16 
f 18/39/18 10/15/10 17/40/17 
f 19/41/19 20/42/20 21/43/21 
f 19/44/19 22/45/22 20/46/20 
f 3/47/3 22/48/22 19/49/19 
f 3/50/3 23/51/23 22/52/22 
f 2/53/2 23/51/23 3/50/3 
f 2/53/2 24/54/24 23/51/23 
f 25/55/25 24/56/24 2/57/2 
f 25/58/25 26/59/26 24/60/24 
f 27/61/27 26/62/26 25/63/25 
f 28/64/28 7/9/7 29/65/29 
f 28/64/28 30/66/30 7/9/7 
f 31/67/31 30/68/30 28/69/28 
f 31/70/31 32/71/32 30/72/30 
f 33/73/33 32/74/32 31/75/31 
f 33/76/33 34/77/34 32/78/32 
f 35/79/35 34/80/34 33/81/33 
f 35/82/35 28/83/28 34/84/34 
f 31/67/31 28/69/28 35/85/35 
f 30/66/30 9/13/9 7/9/7 
f 30/86/30 36/87/36 9/32/9 
f 37/88/37 36/87/36 30/86/30 
f 37/88/37 38/89/38 36/87/36 
f 39/90/39 38/89/38 37/88/37 
f 39/90/39 40/91/40 38/89/38 
f 26/59/26 41/92/41 24/60/24 
f 26/59/26 42/93/42 41/92/41 
f 43/94/43 42/93/42 26/59/26 
f 43/94/43 44/95/44 42/93/42 
f 34/77/34 30/86/30 32/78/32 
f 34/77/34 37/88/37 30/86/30 
f 28/96/28 37/97/37 34/98/34 
f 28/99/28 39/100/39 37/101/37 
f 29/102/29 1/7/1 45/103/45 
f 29/102/29 5/5/5 1/7/1 
f 7/9/7 5/11/5 29/65/29 
f 46/104/46 35/79/35 33/81/33 
f 46/105/46 31/67/31 35/85/35 
f 33/73/33 31/75/31 46/106/46 
f 47/107/47 27/108/27 25/109/25 
f 47/107/47 48/110/48 27/108/27 
f 10/15/10 48/110/48 47/107/47 
f 12/111/12 16/112/16 10/113/10 
f 12/24/12 14/23/14 16/114/16 
f 4/4/4 25/115/25 2/2/2 
f 4/6/4 6/8/6 25/116/25 
f 49/117/49 29/118/29 45/119/45 
f 49/117/49 28/99/28 29/118/29 
f 18/120/18 38/89/38 40/91/40 
f 18/120/18 17/35/17 38/89/38 
f 17/35/17 36/87/36 38/89/38 
f 17/35/17 9/32/9 36/87/36 
f 6/121/6 47/122/47 25/55/25 
f 6/123/6 8/16/8 47/107/47 
f 23/51/23 41/124/41 22/52/22 
f 23/51/23 24/54/24 41/124/41 
f 19/49/19 1/125/1 3/47/3 
f 19/126/19 45/103/45 1/7/1 
f 15/34/15 16/33/16 14/127/14 
f 47/107/47 8/16/8 10/15/10 
f 50/128/50 51/129/51 21/130/52 
f 50/128/50 40/131/53 51/129/51 
f 52/132/54 40/131/53 50/128/50 
f 52/132/54 18/133/55 40/131/53 
f 53/134/56 18/133/55 52/132/54 
f 53/135/56 10/15/57 18/39/55 
f 48/110/58 10/15/57 53/135/56 
f 21/43/52 45/119/59 19/41/60 
f 21/43/52 54/136/61 45/119/59 
f 51/137/51 54/136/61 21/43/52 
f 51/137/51 39/100/62 54/136/61 
f 40/131/53 39/138/62 51/129/51 
f 43/139/63 52/132/54 50/128/50 
f 43/139/63 53/134/56 52/132/54 
f 27/140/64 53/141/56 43/142/63 
f 27/108/64 48/110/58 53/135/56 
f 54/136/61 49/117/65 45/119/59 
f 54/136/61 28/99/66 49/117/65 
f 39/100/62 28/99/66 54/136/61 
f 43/142/63 26/143/67 27/140/64 
f 55/144/68 56/145/69 22/52/70 
f 55/146/68 57/147/71 56/148/69 
f 58/149/72 57/147/71 55/146/68 
f 58/149/72 59/150/73 57/147/71 
f 60/151/74 59/150/73 58/149/72 
f 60/152/74 61/153/75 59/154/73 
f 62/155/76 61/153/75 60/152/74 
f 62/155/76 50/156/77 61/153/75 
f 63/157/78 50/156/77 62/155/76 
f 63/157/78 43/158/79 50/156/77 
f 44/159/80 43/158/79 63/157/78 
f 60/152/74 63/157/78 62/155/76 
f 60/152/74 64/160/81 63/157/78 
f 58/149/72 64/161/81 60/151/74 
f 58/149/72 44/162/80 64/161/81 
f 55/146/68 44/162/80 58/149/72 
f 55/146/68 65/163/82 44/162/80 
f 41/124/83 65/164/82 55/144/68 
f 61/153/75 57/165/71 59/154/73 
f 61/153/75 21/166/84 57/165/71 
f 50/156/77 21/166/84 61/153/75 
f 56/145/85 20/167/86 22/52/87 
f 56/168/85 57/169/88 20/42/86 
f 65/163/89 42/170/90 44/162/91 
f 65/164/89 41/124/92 42/171/90 
f 41/124/93 55/144/93 22/52/93 
f 57/169/88 21/43/94 20/42/86 
f 64/160/81 44/159/80 63/157/78 
# 126 faces

